<svg viewBox="0 0 24 24" xmlns="http://www.w3.org/2000/svg">
  <defs>
    <linearGradient id="pythonGrad" x1="0%" y1="0%" x2="100%" y2="100%">
      <stop offset="0%" stop-color="#3776AB" />
      <stop offset="50%" stop-color="#4B8BBE" />
      <stop offset="100%" stop-color="#FFD43B" />
    </linearGradient>
  </defs>
  <path d="M14.25.18l.9.2.73.26.59.3.45.32.34.34.25.34.16.33.1.3.04.26.02.2-.01.13V8.5l-.05.63-.13.55-.21.46-.26.38-.3.31-.33.25-.35.19-.35.14-.33.1-.3.07-.26.04-.21.02H8.77l-.69.05-.59.14-.5.22-.41.27-.33.32-.27.35-.2.36-.15.37-.1.35-.07.32-.04.27-.02.21v3.06H3.17l-.21-.03-.28-.07-.32-.12-.35-.18-.36-.26-.36-.36-.35-.46-.32-.59-.28-.73-.21-.88-.14-1.05-.05-1.23.06-1.22.16-1.04.24-.87.32-.71.36-.57.4-.44.42-.33.42-.24.4-.16.36-.1.32-.05.24-.01h.16l.06.01h8.16v-2.55l.04-.37.12-.3.19-.24.26-.18.32-.14.37.1-.41.07-.44.04zm-4.5 1.53l-.16.03-.13.07-.09.11-.05.14-.02.16.02.16.05.14.09.11.13.07.16.03.16-.03.13-.07.09-.11.05-.14.02-.16-.05-.14-.09-.11-.13-.07zm10.81 9.12l.21.03.28.07.32.12.35.18.36.26.36.36.35.46.32.59.28.73.21.88.14 1.05.05 1.23-.06 1.22-.16 1.04-.24.87-.32.71-.36.57-.4.44-.42.33-.42.24-.4.16-.36.1-.32.05-.24.01h-.16l-.06-.01h-8.16v2.55l-.04.37-.12.3-.19.24-.26.18-.32.14-.37.1-.41.07-.44.04h-1.83l-.9-.2-.73-.26-.59-.3-.45-.32-.34-.34-.25-.34-.16-.33-.1-.3-.04-.26-.02-.2.01-.13v-5.25l.05-.63.13-.55.21-.46.26-.38.3-.31.33-.25.35-.19.35-.14.33-.1.3-.07.26-.04.21-.02h5.47l.69-.05.59-.14.5-.22.41-.27.33-.32.27-.35.2-.36.15-.37.1-.35.07-.32.04-.27.02-.21v-3.06h1.27l.63.02.48.05.32.05.15.02.06.02zm-4.5 11.25l-.16.03-.13.07-.09.11-.05.14-.02.16.02.16.05.14.09.11.13.07.16.03.16-.03.13-.07.09-.11.05-.14.02-.16-.02-.16-.05-.14-.09-.11-.13-.07z" fill="url(#pythonGrad)"/>
</svg>
