<?xml version="1.0" encoding="utf-8"?>
<!-- Generator: Adobe Illustrator 21.1.0, SVG Export Plug-In . SVG Version: 6.00 Build 0)  -->
<svg version="1.1" id="_Layer_" xmlns="http://www.w3.org/2000/svg" xmlns:xlink="http://www.w3.org/1999/xlink" x="0px" y="0px"
	 viewBox="0 0 64 64" style="enable-background:new 0 0 64 64;" xml:space="preserve">
<style type="text/css">
	.st0{fill:#5B89B4;}
</style>
<title>threat-intelligence</title>
<path class="st0" d="M37.7,13.6l-1.5-0.3c0,0,1-4.9,7.7-4.4l-0.1,1.5C38.4,10,37.7,13.5,37.7,13.6z"/>
<path class="st0" d="M51.9,36.7c-0.7-6.7-6.3-7.2-6.6-7.3l0.1-1.5c4.4,0.5,7.8,4.2,8,8.6L51.9,36.7z"/>
<path class="st0" d="M37.7,40.6c-3-4.2-7.9-2.5-8-2.5l-0.5-1.4c0.1,0,6-2.2,9.7,3L37.7,40.6z"/>
<path class="st0" d="M29.9,25.8v-1.5c0.1,0,7.5-0.2,8.5-4.7l1.5,0.3C38.5,25.5,30.3,25.8,29.9,25.8z"/>
<path class="st0" d="M43.8,33.4l-1.1-1c3.1-3.3,1-7.5,0.9-7.7l1.3-0.7C44.9,24.1,47.6,29.4,43.8,33.4z"/>
<rect x="28.7" y="1.8" class="st0" width="1.5" height="60.1"/>
<polygon class="st0" points="29.2,20.7 21.1,20.7 21.1,16.8 22.6,16.8 22.6,19.2 29.2,19.2 "/>
<polygon class="st0" points="29.5,30.4 12.9,30.4 12.9,26.6 14.4,26.6 14.4,28.9 29.5,28.9 "/>
<rect x="20.8" y="29.9" class="st0" width="1.5" height="4.1"/>
<path class="st0" d="M21.8,17.7c-1.8,0-3.3-1.5-3.3-3.3s1.5-3.3,3.3-3.3c1.8,0,3.3,1.5,3.3,3.3S23.6,17.7,21.8,17.7L21.8,17.7z
	 M21.8,12.7c-1,0-1.8,0.8-1.8,1.8s0.8,1.8,1.8,1.8s1.8-0.8,1.8-1.8c0,0,0,0,0,0C23.6,13.4,22.8,12.6,21.8,12.7L21.8,12.7z"/>
<path class="st0" d="M13.4,27.2c-1.8,0-3.3-1.5-3.3-3.3c0-1.8,1.5-3.3,3.3-3.3s3.3,1.5,3.3,3.3c0,0,0,0,0,0
	C16.7,25.8,15.2,27.2,13.4,27.2z M13.4,22.2c-1,0-1.8,0.8-1.8,1.8c0,1,0.8,1.8,1.8,1.8c1,0,1.7-0.8,1.8-1.7
	C15.2,23,14.5,22.2,13.4,22.2C13.5,22.2,13.5,22.2,13.4,22.2L13.4,22.2z"/>
<path class="st0" d="M21.6,39.8c-1.8,0-3.3-1.5-3.3-3.3c0-1.8,1.5-3.3,3.3-3.3c1.8,0,3.3,1.5,3.3,3.3l0,0
	C24.8,38.3,23.4,39.8,21.6,39.8z M21.6,34.8c-1,0-1.8,0.8-1.8,1.8c0,1,0.8,1.8,1.8,1.8s1.8-0.8,1.8-1.8l0,0
	C23.3,35.6,22.6,34.8,21.6,34.8C21.6,34.8,21.6,34.8,21.6,34.8L21.6,34.8z"/>
<path class="st0" d="M18.9,51.6c-1.8,0-3.3-1.5-3.3-3.3c0-1.8,1.5-3.3,3.3-3.3c1.8,0,3.3,1.5,3.3,3.3l0,0
	C22.2,50.2,20.7,51.6,18.9,51.6z M18.9,46.6c-1,0-1.8,0.8-1.8,1.8c0,1,0.8,1.8,1.8,1.8s1.8-0.8,1.8-1.8l0,0
	C20.7,47.4,19.9,46.6,18.9,46.6C18.9,46.6,18.9,46.6,18.9,46.6L18.9,46.6z"/>
<path class="st0" d="M37,49.8c-0.6,0-1.1-0.1-1.7-0.2l0.3-1.5c0.2,0,4.8,0.9,6.3-2.6l1.4,0.6C42.1,49,39.2,49.8,37,49.8z"/>
<path class="st0" d="M29.9,62.9c-0.7,0-1.4-0.2-2.1-0.5L27,62C26.8,61.9,7.1,51.4,7.1,40V9.8c0-0.9,0.7-1.6,1.6-1.6
	C24.9,8.1,28,2.1,28,2c0.2-0.6,0.8-1,1.4-1l0,0c6,0,11.6,3,14.9,8C51.8,11.3,57,18.2,57,26c0,3.9-1.3,7.7-3.7,10.8
	c0,0.4,0,0.8,0,1.2c0,8-5.3,15-13,17.2c-2.1,4.4-5.8,6-9.7,7.5C30.4,62.8,30.1,62.8,29.9,62.9z M29.5,2.5L29.5,2.5
	c0,0-0.1,0-0.1,0.1c0,0-3.1,7-20.7,7c-0.1,0-0.1,0.1-0.1,0.1V40c0,9.5,16.7,19.6,19,20.6l0.8,0.3c0.6,0.3,1.2,0.5,1.9,0.4
	c3.9-1.4,7.2-2.9,9-7l0.2-0.3l0.3-0.1c7.2-1.9,12.2-8.4,12.2-15.8c0-0.5,0-0.9-0.1-1.4v-0.3l0.2-0.2c2.3-2.9,3.5-6.5,3.5-10.2
	c0-7.3-4.9-13.7-11.9-15.7l-0.3-0.1L43.2,10C40.2,5.3,35.1,2.5,29.5,2.5z"/>
<rect x="14.6" y="50.8" transform="matrix(0.7071 -0.7071 0.7071 0.7071 -31.6542 26.6966)" class="st0" width="3.6" height="1.5"/>
</svg>
